<mxfile host="app.diagrams.net" modified="2024-05-22T03:40:22.253Z" agent="Mozilla/5.0 (Windows NT 10.0; Win64; x64) AppleWebKit/537.36 (KHTML, like Gecko) Chrome/124.0.0.0 Safari/537.36" etag="Zy39ibe9DtW3d7zo5mk6" version="24.4.4" type="github" pages="2">
  <diagram id="f106602c-feb2-e66a-4537-3a34d633f6aa" name="Page-1">
    <mxGraphModel dx="1195" dy="643" grid="0" gridSize="10" guides="1" tooltips="1" connect="0" arrows="0" fold="1" page="1" pageScale="1" pageWidth="1169" pageHeight="827" background="#000000" math="0" shadow="0">
      <root>
        <mxCell id="0" />
        <mxCell id="1" parent="0" />
        <mxCell id="14" value="&lt;div&gt;&lt;b&gt;&lt;br&gt;&lt;/b&gt;&lt;/div&gt;&lt;b&gt;Google &lt;/b&gt;Cloud Platform" style="fillColor=#7EA6E0;strokeColor=none;shadow=0;gradientColor=none;fontSize=14;align=left;spacing=10;fontColor=#000000;9E9E9E;verticalAlign=top;spacingTop=-4;fontStyle=0;spacingLeft=40;html=1;rounded=1;opacity=40;container=0;" parent="1" vertex="1">
          <mxGeometry x="382" y="105" width="438" height="334" as="geometry" />
        </mxCell>
        <mxCell id="2" value="Credit Card Fraud Detection System Architecture Flow Diagram with CI/CD Pipeline" style="fillColor=#7EA6E0;strokeColor=none;shadow=1;gradientColor=none;fontSize=14;align=center;spacingLeft=50;fontColor=#FFFFFF;html=1;rounded=1;opacity=50;fontStyle=1" parent="1" vertex="1">
          <mxGeometry x="169" y="40" width="651" height="40" as="geometry" />
        </mxCell>
        <mxCell id="3010zChGD8NFXPHqeN6b-33" value="&lt;div&gt;&lt;b&gt;&lt;br&gt;&lt;/b&gt;&lt;/div&gt;&lt;b&gt;Github&lt;/b&gt;&lt;div&gt;&lt;/div&gt;" style="fillColor=#7EA6E0;strokeColor=none;shadow=0;gradientColor=none;fontSize=14;align=left;spacing=10;fontColor=#000000;9E9E9E;verticalAlign=top;spacingTop=-4;fontStyle=0;spacingLeft=40;html=1;rounded=1;opacity=40;container=0;" vertex="1" parent="1">
          <mxGeometry x="168" y="108" width="208" height="333" as="geometry" />
        </mxCell>
        <mxCell id="Vmmifu1ivM9bDP658eEY-25" value="" style="shape=image;verticalAlign=top;verticalLabelPosition=bottom;labelBackgroundColor=none;imageAspect=0;aspect=fixed;image=https://cdn4.iconfinder.com/data/icons/ionicons/512/icon-social-github-128.png;fontColor=#FFFFFF;" vertex="1" parent="1">
          <mxGeometry x="185" y="128" width="30" height="30" as="geometry" />
        </mxCell>
        <mxCell id="3010zChGD8NFXPHqeN6b-30" value="Local" style="shape=image;html=1;verticalAlign=top;verticalLabelPosition=bottom;labelBackgroundColor=none;imageAspect=0;aspect=fixed;image=https://cdn4.iconfinder.com/data/icons/computer-and-web-2/500/Development-128.png;fontStyle=0;imageBackground=none;imageBorder=none;strokeWidth=1;fontColor=#FFFFFF;" vertex="1" parent="1">
          <mxGeometry x="246" y="466.5" width="56" height="56" as="geometry" />
        </mxCell>
        <mxCell id="3010zChGD8NFXPHqeN6b-31" value="" style="edgeStyle=orthogonalEdgeStyle;fontSize=12;html=1;endArrow=none;endFill=0;rounded=0;strokeWidth=2;endSize=4;startSize=4;dashed=0;strokeColor=#4284F3;startArrow=blockThin;startFill=1;exitX=0.521;exitY=0.976;exitDx=0;exitDy=0;exitPerimeter=0;" edge="1" parent="1" source="3010zChGD8NFXPHqeN6b-40" target="3010zChGD8NFXPHqeN6b-30">
          <mxGeometry width="100" relative="1" as="geometry">
            <mxPoint x="-79" y="217" as="sourcePoint" />
            <mxPoint x="264" y="400" as="targetPoint" />
            <Array as="points" />
          </mxGeometry>
        </mxCell>
        <mxCell id="3010zChGD8NFXPHqeN6b-32" value="Push" style="edgeLabel;html=1;align=center;verticalAlign=middle;resizable=0;points=[];labelBackgroundColor=none;fontColor=#FFFFFF;" vertex="1" connectable="0" parent="3010zChGD8NFXPHqeN6b-31">
          <mxGeometry x="-0.1266" y="4" relative="1" as="geometry">
            <mxPoint x="-22" y="-7" as="offset" />
          </mxGeometry>
        </mxCell>
        <mxCell id="3010zChGD8NFXPHqeN6b-40" value="main" style="strokeColor=#dddddd;shadow=1;strokeWidth=1;rounded=1;absoluteArcSize=1;arcSize=2;container=0;" vertex="1" parent="1">
          <mxGeometry x="234.5" y="262" width="75" height="45.31" as="geometry" />
        </mxCell>
        <UserObject label="" link="https://github.com/hanimsofia/CreditCardFraudDetection" id="3010zChGD8NFXPHqeN6b-44">
          <mxCell style="shape=image;verticalLabelPosition=bottom;labelBackgroundColor=default;verticalAlign=top;aspect=fixed;imageAspect=0;image=data:image/png,iVBORw0KGgoAAAANSUhEUgAAAS4AAAAhCAYAAABnYUYiAAAAAXNSR0IArs4c6QAAAARnQU1BAACxjwv8YQUAAAAJcEhZcwAADsMAAA7DAcdvqGQAABEjSURBVHhe7ZsLUFRXmsf/Dh2FSEDZYBo1aBMEheERlZhWXIhKFCipkVEcMbgZH3EmRJ0IM4mBpEjExCiQ0pXsaiQxKhBFcQKD6KJMz0psxaCgsR0IdrOs2qwYWiLaSCB3v3P7Ag1CN0TzoDy/qi7O457nPed/vu/eyyCBAIfD4QwgfiX95XA4nAEDFy4OhzPg4MLF4XAGHFy4OBzOgIMLF4fDGXDwt4qE0WhEaWkpqiorxbjn+PGYMmUKhgwZIsY5HM4vi4dauHQ6HVI2b8bf8vPR0tIipZqwtbXFb+bNw2uvvQa5i4uUyuFwfgk8tMKVmZmJdSRK3333nZTSM0zA0j/8EGHh4VIKh8P5uXkohevTXbvwOolWf/iEyswJDZViHA7n5+ShE66qqio8FxSE77//HmkffICRo0Zh8/vv49atW/iXxx8Xr7l+/TrGjBmDhMRE/EOlwjtvv41HH30UJ0+dwhNPPCFe85NwtxHNsIftEBspgQMY0fwtWcIOdlKc89Pz89+Dh064VixfLj7TYuzZuxezQkLEcG9kZ2Vh7auviuEVK1bgneRkMdwj544g8cQoJK/2kRLuj6rte5A7NBCvv6CQUn4s2lB/7AgykhvQVAPIwl2xND0IrlKuNerzDiDfYQ6WBtuzGCq2lyA/uwnNVJftglGIejMIHg73Ib76EmyhaY9OD4Tz+SIkvWeDpdkzqH8XkDW2EiPV8xHc/hjydjVUW8ugym1BK2wwPFKB6D8r4SKT8n8I5u2zsFJHozTHDrPM+/DAqIMqtgRIZHWzsZZDI+XInraH3xuBmBfgLKX0Drs/W2o872NddpvnLvfg/shY+F/Qnf4/KQYk18SIfxPH7hH/Mn4dPga/S/9XKWbiofocwmAwoPDwYSlGy42sKGsMGzZMCgE5OTloa2uTYj8+HitjfgLRYlRCta4J3tsX0sKJRuKmZ/qxIGtRljsYfkomWkZUfViE/EZXrDwaTXXNxzJlA3avLoHedPH94xuCpF43DG30N9W4ONYf8eoYJKvnYNZQHdLTyknEHiTOiKYNxjaZ6fdjiFZPMIFk7dE9+tAVt949gt0nmqS8nxCL96B/MNHqnEeTaDFY+Lep0yAjb+Orgv+RUjvpm3DdUCN16VS4DRqEQYPcMHXpBhym03SgcUqt7hAeXz8/TJs2TQxbIjQsDO7jxonhmzdvoqKiQgz3SmsjTq/fJ54YSS8WQXNbSr9difzVWWJ64myyUDTSgmNWWlpJj2XEkzKvjkLs5D2AnOwj2BhM5QP24eNj1dDmHEJSAMWD9+HQufYF3ISqXQdM6QFZ2LKrktxNE61X1Nj9IqWzdlYXoaKBzQU7TctQUd+C07P3IeucDQzHC6R2GVdx+r19SGL9pnZ2H7sqpUvU6HDRyxV+7MuRby9AtckeoWsmwVl0b+3gEumPwKGNuMyUi401iYQtluraeoGVRrOmGFtmm/pk3lcxvX2shxs7hYdZPGSF1LO/ogVixDHlHuo35WkuoKTeFXMXecKeWVgyJ/i96AmPC/XQioV7GQura2UBDrF7wOqmpF7b7xXTPcrKyMPGgANQ0XjNx5a0uhhV0n3VbJX6K8LKmcXZOmHzQ2U2rr+Aaz02bAOZyyQs2SBHbUZZx6HQ01yytrasNgIk3u1jw5XSjnWwcX2pmfVYj7Kt3eanp3luvwdimcbO9cbK5FV33ENxnLml+HiR1Nb2Cx151jh3UIvP153C4h3BUkpXrAtXsxobQqYi5UY4Us5poT23DYtbtyFcGY/in0Hs74dvvvlGCgFuir5bMu5PPSWFAO3ly1KoF7LrcOv38+jEiMA833qy8Gop0YiK9FJopwciiU7L15PsUPFeGdkqEj2W6Y4R12SeiFfFIOkzZxiWq5GPSUg8E4PEzfa4mKA2bc7zJdh9xhkr2cl83B+uqjIUMv/i7gXsf0kHWWwEtbMQayKMyF/LLCEfsh784SWd5tFPs0o60eeUoGgItUsnYNJeObVbhrK7UiZRq66D83RPiJ5YTQNqw53g2uXzN3fMSY9AYLtFUmrEiCSy7Jjbolcj4+VGTNpL8eogeJ8vRZaqgQSwDFn/1gBvln4mAqHDjTBIxTtwCcSabv026BrRHEDtS5eIONAG3xMCDwpaHMtRI2RRc5DM3MG+tN8jRtQP8cIrZ8gCcyrHflZHBrNi6b6OrUNunk66rjcacHozrZPgIHGdxMfYwXBWyuoJLzncVPWoZArSy1x6rY7Bmq12wFp/09juapCzSofH1rJ1QGNzrMb2XdVidfqcYhS20vxU09rJ84IsvQRH7t47z+bU5xVh93m5ab3lTcLwo2rsV5NQSmhKWhC6h/LO+8D1cw1UfTB4vsz+Gn99TY3FHwVjXNBIKbUr1oXrhg5ny4Hf/jEOkf4KKPzDEPtuJratdUGzdCg3/zML8WFuZI0NgptyOVJLbpoyQKLHrLT1aileh6woikdlUYhy11M4MhEbllJZKc28LhefxWZ1dWsnLB5Z/5T0u+kcsjano9jKpAz6VedwbzY2SiHrmAve3W7fe91DjCdmjR5MAUeMdB8Mg561Mxjef4hA7AJX2uA2sFe6wu2EkWwjiR7LdMcOfoEKUSBkTznDRYyz+gDbAKpP02Y6zWQ2sL3WhGt1TWh18MK8XdGY50Xp52uhmeiOiABHigzG8Fk+mNxWhworc+YcFoL41f5gjqBstDu8Z7fgFmmLiUqU7XfEZKX0kLYvXvQcBaY4s7GS0Jy9CkOMFwJZXOaKWYucoD1Pp3xlHbSRCgSLc0JWm1JOzpl1Wq20b3Es4XI868nmhrDafj1ZqSYrQrRuOqxTuicz3cX6QQIZdTy84776TXdEU721k/4qLu9yRGCEaZ3IxlIfn5GyLEFWWa9z2Z3KWlR4KxDiy8ZK/Yp0hd2ZOhrRVVw8BkwmC1m0Vh18ELU3hOZALNULV1FR0IJJywNNzxAd3BH6O0dUqTQdFqpXTHueHCMVLWiwcgIw0cpLPI1F/xHUIVrmLmQ71oVr9ARMfRZIX70YG7LV0LG5Hz0DsX+OQ5g7ha/kYtlzi3HSfxu0Bi0yo41ImR6GVBK7PnEoAyeHJSBzxQTYNhUjUawrBRq9FrkvgepajAx2INw4jHizdrb5n8TiRalQs91adwkH01Jx+FKnyPXEk08+KYWAs2fPornZuuH6LQmcuXtoXkffsUFrPblkyyVX0ewh6wPHKwixf7FDWVIeme+drmK9nk7BEXamTSViB1sH6wtJdvcqCtdlmdyHscVQHZUyGJpaaEmImC6K9PP5u/6yEc3kqrQLQOICUpHKRlSyvg4dbLLi+gFptkUsjsUMca4stt/1GdeaCLmUbk4brquKkSq5buLYrEEHVj0dKnb9/YcN6mhvc9npBpqor6ENvLcSG9uvC9TBUNBE1zXg+lE69Mzalg11gq3Fm8DK0CE4XIoSMnsSzit9tVC7curTSnyecBoL/306xodYVMy+PON6GnFFGhxcYovMtVPh9lhXa0dXmI6sujgkvxUGxTAFlKviEe+vRkphhxNvmXmp2Ja2DNEhZIP+PRepdZF45eVITJCzuhKRsWkG7G42o64oA+lm7YS99Aoiy7eh+Cuqwz0aB0noUkI7H6T3hJ+vrxQyCRL7zMESd+7cEb/3av+q3sbGBv7+/mK4f9RCtb4WsmVzyAWgxa5W9MmC+GHQQlLOwEs7o5FcooT3mVLkn6et5kJW0W32pq0d9kp7MJzMFt29kIu7sxzXlEokipuUuQzttKHqRAPcprPTS2IsuWkF5C6auZJANY7EHoLqihQ1w3k0Cel7gR0CIP7InfG8p699Y7jCEbZnqH0pLkJu3+6YImhaLY2lK/fO1Q+gpgw5n9hgVjZzFSV3zZyezEMXR1oXLTB2mT8LaMgyDHaGJy2m3uay+zoTx7bSy7QOO35zaC6cMTKcrHaztltvN6DZ4iQ4YcTsbmWaaK9QXywuqx74ztiK//7PrzA/bRq8w8ZIqSaYwHanD8JF2E9A5JuZZAWRkl4qwDJZJhY/F4/DN8jYqSsGFkyEl610LTkxLuMovdW6NSNCit5+S5ub2GPGiVB0iO0EhJFlFz3ZFrrqXIqnYqYde0FAP8Vi5DLnsh+ry3HYMMyYORNDhw7F6+vW4VBuLqLmz8cHaWmore1c7jU1NXj1T3+Cj7c3Dh06JKUCIc8/DwcHBynWH4wwXrfBYyPsabgtMFxswC0p50Gjz9mH5LRyNLF5IaHtwNcVXicqsf8Mc0OpD8cu4EsbOfzGmrJ7xvS9zmNOTtTvNjRV1pud4Bp8ecQJfl5mbZB7EfyXJhRuKYNBvC9G6HPLUXLbCZ49HKDOE53xyJ5yEjV2MLSgSV2MHBXdU99R8MjVSelUh5q5Mj1hg0doZ3ZogJcPuUq1yM+uNrnhrQ2oIIuzyscZHjJLY+lGn9u3wB0SIEc6RBzIAmklgbloOvwY9uTOaU9oREu49Uo1Lpaa0tnzQO+XG1GSV0vLug2tNeZ55lCengQ5oQ6uyybRjrMwl4RoibbvE3Fs1XSYsXXA2ihBFs1XK+TwDCZXje6XuHa+1SA/9giKxEe63ea5g1HwC7dBydYS6MUy1Sj8rBEewV5sW/eLR+xkWFMUAb/f9O3Zs1XhqsuPx8znSaTEObDFsPFhSNiUCGVdOs6RCyeXzwByNOh87KiH/mtKlzElk0Nu+TOpLgx7nHX6LHQdp/NNXPp7Mc5RXGwHcSioN4ifNbT/4iabruwr60iwmCWlUqnwwZYt+OKLL/DRjh1wNBMkJk6fZWeL17UzePBgvJGQIMX6iydCU5yhXbYPiQEHkGOwx0jaWtf7vRus47IgECF3K5GiJDdAWYKLAc9gLjM0h/ggaocCrel5dILtw5Y8O8xNCxQXfe84YcofPNG6nZXJwjZyJUbONqKe+t2qroU+yh1u0pUm7ODxcgjmOuqwhbU/9gAy1E5YsrWXdsYGYunb9qhg80J9SskmqziA3K4h/oj61AkXX2DzlYdCQ28nuCcmxbZBFbgHOWRVsvUWvJ6sTLJ2UpgbpDyCY7cViF3rTxup97HcQ5/bt4CXElHBDfjYnfoRrobhSXLSyU1jLpRrhBe8z5cjmfqYvKmFLB1TEfEZWewzcFP9g9zZLKTsMWL4RClLxPRmj/U/ed1VDH9jDpZMl5z/3uaSGK5UwC2vHIlrqR9sbJ+Nwq000zwkJzXiqemmZ6cuC2YgVEZrh/U54gJuvRCEuZ6shu7z3IlzRAiW+NZhO+tXBB1Ys2nc7c88+8kQ+0ekUB9gH6Ba5H8PCtFyCMpVO4Xjl/SCQXdS2LlKKQBhws6vzfLXFQhag1Y4uTVakEMppJxjhQ1CwR8h4NkEoUCnFzSHk4UwuhYLMgU95Z58pzMscuu4ECfWdVDQ6PXC2R2sru7tsDyDoFXvFGIXJAgnDazcWSFz0zbhuE6sxSo7P/pIkI8YIaSlpkop9zLew0O8pv138MABKYcjCHeE8vdzhMI+zjeH0xs7Fx4VEsbstvj75IUi6epOrAsXQ39cSPm9UiB7iARLLkyYGyvsPMMUw4TxUqYQF6pgX+AL8l9HCyknOvMEXYEQ95zcVG7RNiFllQXhIizV1TUvTIjL0ghGlvF1phApVwhxh83atcKnu3YJrqNHC+QOCsuXLZNSO5ng6SkKlse4ccLhggIplcPh/BJ4KP/Juh2tVot3N2zA1StXUHi06ysm9v+MPr6+ePOtt+Ds/OM9SudwOP3noRauB01Pbz84HE5X2JvM+4ULF4fDGXD07XMIDofD+QXBhYvD4Qw4uHBxOJwBBxcuDocz4ODCxeFwBhxcuDgczoCDCxeHwxlwcOHicDgDDOD/AbT40oP/SvAKAAAAAElFTkSuQmCC;" vertex="1" parent="1">
            <mxGeometry x="182" y="201" width="180" height="19.67" as="geometry" />
          </mxCell>
        </UserObject>
        <mxCell id="3010zChGD8NFXPHqeN6b-49" value="" style="shape=mxgraph.gcp2.doubleRect;strokeColor=#dddddd;shadow=1;strokeWidth=1;rounded=1;absoluteArcSize=1;arcSize=2;" vertex="1" parent="1">
          <mxGeometry x="428" y="178.16" width="281" height="57" as="geometry" />
        </mxCell>
        <mxCell id="3010zChGD8NFXPHqeN6b-50" value="&lt;a style=&quot;box-sizing: border-box; border-width: 0px 0px 1px; border-top-style: initial; border-right-style: initial; border-bottom-style: solid; border-left-style: initial; border-top-color: initial; border-right-color: initial; border-bottom-color: currentcolor; border-left-color: initial; border-image: initial; font-family: Roboto, sans-serif; font-size: 13px; margin: 0px; outline: 0px; padding: 0px; vertical-align: baseline; cursor: pointer; text-decoration-line: none; background-color: rgb(255, 255, 255);&quot; class=&quot;ng-star-inserted&quot; rel=&quot;noopener&quot; href=&quot;https://console.cloud.google.com/cloud-build/triggers;region=us-central1/edit/1e063867-0291-4988-8d0e-c13c03cfe3e3?hl=en&amp;amp;project=wqd7006-422016&quot;&gt;deploy-creditcardfrauddetectionapp&lt;/a&gt;&lt;br&gt;Cloud Build" style="editableCssRules=.*;html=1;fontColor=#999999;shape=image;verticalLabelPosition=middle;verticalAlign=middle;labelPosition=right;align=left;spacingLeft=20;part=1;points=[];imageAspect=0;image=data:image/svg+xml,PHN2ZyB4bWxucz0iaHR0cDovL3d3dy53My5vcmcvMjAwMC9zdmciIHhtbG5zOnY9Imh0dHBzOi8vdmVjdGEuaW8vbmFubyIgd2lkdGg9IjE3LjMyOTk5OTkyMzcwNjA1NSIgaGVpZ2h0PSIxOS42MTAwMDA2MTAzNTE1NjIiIHZpZXdCb3g9IjAgMCAxNy4zMjk5OTk5MjM3MDYwNTUgMTkuNjEwMDAwNjEwMzUxNTYyIj4mI3hhOwk8c3R5bGUgdHlwZT0idGV4dC9jc3MiPi5zdDAgeyBmaWxsOiByZ2IoNjYsIDEzMywgMjQ0KTsgfSAuc3QxIHsgZmlsbDogcmdiKDEwMiwgMTU3LCAyNDYpOyB9IC5zdDIgeyBmaWxsOiByZ2IoMTc0LCAyMDMsIDI1MCk7IH0gPC9zdHlsZT4mI3hhOwk8cGF0aCBjbGFzcz0ic3QwIiBkPSJNMTIuMTggNy45OEwxMSA3LjI5bC0zLjUyIDYuMSAxLjE4LjY4IDMuNTItMi4wM3oiIGZpbGw9IiM0Mjg1ZjQiLz4mI3hhOwk8cGF0aCBjbGFzcz0ic3QxIiBkPSJNNi4zMiAxMi43MmwzLjUzLTYuMDktMS4xOS0uNjktMy41MiAyLjA0djQuMDZ6IiBmaWxsPSIjNjY5ZGY2Ii8+JiN4YTsJPHBhdGggY2xhc3M9InN0MiIgZD0iTTMuNzUgNy45OEwwIDUuODF2OS4ybDcuOTcgNC42di00LjMzbC00LjIyLTIuNDR6bTkuMTMtMS4ybDMuNzYtMi4xN0w4LjY2IDAgLjY4IDQuNjFsMy43NiAyLjE3IDQuMjItMi40NHpNOS4zNSAxOS42MWw3Ljk4LTQuNnYtOS4ybC0zLjc2IDIuMTd2NC44NmwtNC4yMiAyLjQ0eiIgZmlsbD0iI2FlY2JmYSIvPiYjeGE7PC9zdmc+;" vertex="1" parent="3010zChGD8NFXPHqeN6b-49">
          <mxGeometry width="26" height="30" relative="1" as="geometry">
            <mxPoint x="17" y="15" as="offset" />
          </mxGeometry>
        </mxCell>
        <mxCell id="3010zChGD8NFXPHqeN6b-51" value="" style="shape=mxgraph.gcp2.doubleRect;strokeColor=#dddddd;shadow=1;strokeWidth=1;rounded=1;absoluteArcSize=1;arcSize=2;" vertex="1" parent="1">
          <mxGeometry x="428" y="259" width="283" height="59" as="geometry" />
        </mxCell>
        <mxCell id="3010zChGD8NFXPHqeN6b-52" value="&lt;a style=&quot;box-sizing: border-box; border-width: 0px 0px 1px; border-top-style: initial; border-right-style: initial; border-bottom-style: solid; border-left-style: initial; border-top-color: initial; border-right-color: initial; border-bottom-color: currentcolor; border-left-color: initial; border-image: initial; font-family: Roboto, sans-serif; font-size: 13px; margin: 0px; outline: 0px; padding: 0px; vertical-align: baseline; cursor: pointer; text-decoration-line: none; background-color: rgba(0, 0, 0, 0.04);&quot; class=&quot;ng-star-inserted&quot; rel=&quot;noopener&quot; href=&quot;https://console.cloud.google.com/artifacts/docker/wqd7006-422016/us/gcr.io/creditcardfrauddetectionapp?hl=en&amp;amp;project=wqd7006-422016&quot;&gt;&amp;nbsp;creditcardfrauddetectionapp&lt;/a&gt;&lt;br&gt;Artifact Registry" style="editableCssRules=.*;html=1;fontColor=#999999;shape=image;verticalLabelPosition=middle;verticalAlign=middle;labelPosition=right;align=left;spacingLeft=20;part=1;points=[];imageAspect=0;image=data:image/svg+xml,PHN2ZyB4bWxucz0iaHR0cDovL3d3dy53My5vcmcvMjAwMC9zdmciIHhtbG5zOnY9Imh0dHBzOi8vdmVjdGEuaW8vbmFubyIgd2lkdGg9IjIxLjk5OTAwMDU0OTMxNjQwNiIgaGVpZ2h0PSIyMC4zOTM5OTkwOTk3MzE0NDUiIHZpZXdCb3g9IjAgMCAyMS45OTkwMDA1NDkzMTY0MDYgMjAuMzkzOTk5MDk5NzMxNDQ1Ij4mI3hhOwk8c3R5bGUgdHlwZT0idGV4dC9jc3MiPiYjeGE7CS5zdDB7ZmlsbDojNDI4NWY0O2ZpbGwtcnVsZTpldmVub2RkfSYjeGE7CTwvc3R5bGU+JiN4YTsJPHBhdGggY2xhc3M9InN0MCIgZD0iTTUgMHYyLjQ1OEwxLjk5OSA0LjE5N3YxMi4wMUw1IDE3LjkzOHYyLjQ1NmwtNS0yLjg4N1YyLjg4NnptMTIgMGw0Ljk5OSAyLjg4NnYxNC42MjFMMTcgMjAuMzk0di0yLjQ1NmwzLTEuNzMxVjQuMTk3bC0zLTEuNzM5em0tNi4wMTYgNi42NzNsMi45NDctMS42NDYtMi45NDctMS42NDYtMi45NDcgMS42NDZ6bTMuMjY4LTEuMDk2bC0yLjg3MSAxLjY3OHYzLjI4N2wyLjg3MS0xLjY3NnpNNy43NzMgOC44NjZsMi44NzEgMS42NzRWNy4yNTZMNy43NzMgNS41Nzd6bS0uMjEyIDMuODc4bDIuODItMS42NDYtMi44Mi0xLjY0Ni0yLjgyIDEuNjQ2em0zLjEzMi0xLjA5OGwtMi44NzEgMS42Nzh2My4yODdsMi44NzEtMS42NzZ6bS02LjI2NCAzLjI4OUw3LjMgMTYuNjA5di0zLjI4NWwtMi44NzEtMS42Nzl6bTEwLjAyOS0yLjE5MWwyLjgyLTEuNjQ2LTIuODItMS42NDYtMi44MiAxLjY0NnptMy4xMzItMS4wOThsLTIuODcxIDEuNjc4djMuMjg3bDIuODcxLTEuNjc2em0tNi4yNjQgMy4yODlsMi44NzEgMS42NzR2LTMuMjg1bC0yLjg3MS0xLjY3OXoiLz4mI3hhOzwvc3ZnPg==;" vertex="1" parent="3010zChGD8NFXPHqeN6b-51">
          <mxGeometry width="30" height="27" relative="1" as="geometry">
            <mxPoint x="15" y="16" as="offset" />
          </mxGeometry>
        </mxCell>
        <mxCell id="3010zChGD8NFXPHqeN6b-53" value="" style="shape=mxgraph.gcp2.doubleRect;strokeColor=#dddddd;shadow=1;strokeWidth=1;rounded=1;absoluteArcSize=1;arcSize=2;" vertex="1" parent="1">
          <mxGeometry x="428" y="334" width="282" height="59" as="geometry" />
        </mxCell>
        <mxCell id="3010zChGD8NFXPHqeN6b-54" value="&lt;a style=&quot;box-sizing: border-box; border-width: 0px 0px 1px; border-top-style: initial; border-right-style: initial; border-bottom-style: solid; border-left-style: initial; border-top-color: initial; border-right-color: initial; border-bottom-color: currentcolor; border-left-color: initial; border-image: initial; font-family: Roboto, sans-serif; font-size: 13px; margin: 0px; outline: 0px; padding: 0px; vertical-align: baseline; cursor: pointer; text-decoration-line: none; text-wrap: wrap; background-color: rgba(0, 0, 0, 0.04);&quot; class=&quot;ng-star-inserted&quot; rel=&quot;noopener&quot; href=&quot;https://console.cloud.google.com/run/detail/us-central1/creditcardfrauddetectionapp?hl=en&amp;amp;project=wqd7006-422016&quot;&gt;creditcardfrauddetectionapp&lt;/a&gt;&lt;br&gt;Cloud Run" style="editableCssRules=.*;html=1;fontColor=#999999;shape=image;verticalLabelPosition=middle;verticalAlign=middle;labelPosition=right;align=left;spacingLeft=20;part=1;points=[];imageAspect=0;image=data:image/svg+xml,PHN2ZyB4bWxucz0iaHR0cDovL3d3dy53My5vcmcvMjAwMC9zdmciIHhtbG5zOnY9Imh0dHBzOi8vdmVjdGEuaW8vbmFubyIgd2lkdGg9IjM2NS40NjQ5OTY3NzA0MjQ5MyIgaGVpZ2h0PSIzNzkuMjIyOTk0NDYzNTc3OTUiIHZpZXdCb3g9IjAgMCA5Ni42OTU5OTkxNDU1MDc4MSAxMDAuMzM1OTk4NTM1MTU2MjUiPiYjeGE7PHN0eWxlIHR5cGU9InRleHQvY3NzIj4mI3hhOwkuc3Qwe2ZpbGw6IzQyODVmNDt9JiN4YTsJLnN0MXtmaWxsOiNhZWNiZmE7fSYjeGE7PC9zdHlsZT4mI3hhOwk8cGF0aCBjbGFzcz0ic3QwIiBkPSJNMjkuNzk0IDEwMC4zMzZMNDYuOTIgNTAuMTY4aDQ5Ljc3NnpNMCA5OS42NzFsMTIuOTc2LTQ5LjUwMkgyOS4yMkwxNi44OTcgOTIuMDU0eiIvPiYjeGE7CTxwYXRoIGNsYXNzPSJzdDEiIGQ9Ik0yOS43OTQgMEw0Ni45MiA1MC4xNjhoNDkuNzc2ek0wIC42NjZsMTIuOTc2IDQ5LjUwMkgyOS4yMkwxNi44OTcgOC4yODN6Ii8+JiN4YTs8L3N2Zz4=;" vertex="1" parent="3010zChGD8NFXPHqeN6b-53">
          <mxGeometry width="30" height="30" relative="1" as="geometry">
            <mxPoint x="15" y="15" as="offset" />
          </mxGeometry>
        </mxCell>
        <mxCell id="15" value="" style="shape=mxgraph.gcp2.google_cloud_platform;fillColor=#F6F6F6;strokeColor=none;shadow=0;gradientColor=none;" parent="1" vertex="1">
          <mxGeometry x="405" y="130" width="23" height="20" as="geometry">
            <mxPoint x="21" y="27" as="offset" />
          </mxGeometry>
        </mxCell>
        <mxCell id="3010zChGD8NFXPHqeN6b-55" value="" style="endArrow=none;html=1;rounded=0;strokeColor=#000000;" edge="1" parent="1">
          <mxGeometry width="50" height="50" relative="1" as="geometry">
            <mxPoint x="136" y="443" as="sourcePoint" />
            <mxPoint x="814" y="439" as="targetPoint" />
          </mxGeometry>
        </mxCell>
        <mxCell id="3010zChGD8NFXPHqeN6b-56" value="" style="endArrow=none;html=1;rounded=0;strokeColor=#000000;" edge="1" parent="1">
          <mxGeometry width="50" height="50" relative="1" as="geometry">
            <mxPoint x="41" y="108" as="sourcePoint" />
            <mxPoint x="719" y="104" as="targetPoint" />
          </mxGeometry>
        </mxCell>
        <mxCell id="3010zChGD8NFXPHqeN6b-57" value="" style="edgeStyle=orthogonalEdgeStyle;fontSize=12;html=1;endArrow=none;endFill=0;rounded=0;strokeWidth=2;endSize=4;startSize=4;dashed=0;strokeColor=#4284F3;startArrow=blockThin;startFill=1;entryX=1.022;entryY=0.514;entryDx=0;entryDy=0;entryPerimeter=0;exitX=-0.002;exitY=0.485;exitDx=0;exitDy=0;exitPerimeter=0;" edge="1" parent="1" source="3010zChGD8NFXPHqeN6b-49" target="3010zChGD8NFXPHqeN6b-40">
          <mxGeometry width="100" relative="1" as="geometry">
            <mxPoint x="426" y="206" as="sourcePoint" />
            <mxPoint x="303" y="206" as="targetPoint" />
            <Array as="points">
              <mxPoint x="379" y="206" />
              <mxPoint x="379" y="285" />
              <mxPoint x="311" y="285" />
            </Array>
          </mxGeometry>
        </mxCell>
        <mxCell id="3010zChGD8NFXPHqeN6b-58" value="Trigger Build" style="edgeLabel;html=1;align=center;verticalAlign=middle;resizable=0;points=[];labelBackgroundColor=none;fontColor=#FFFFFF;" vertex="1" connectable="0" parent="3010zChGD8NFXPHqeN6b-57">
          <mxGeometry x="-0.1266" y="4" relative="1" as="geometry">
            <mxPoint x="-39" y="2" as="offset" />
          </mxGeometry>
        </mxCell>
        <mxCell id="3010zChGD8NFXPHqeN6b-59" value="" style="edgeStyle=orthogonalEdgeStyle;fontSize=12;html=1;endArrow=none;endFill=0;rounded=0;strokeWidth=2;endSize=4;startSize=4;dashed=0;strokeColor=#4284F3;startArrow=blockThin;startFill=1;exitX=0.997;exitY=0.462;exitDx=0;exitDy=0;exitPerimeter=0;" edge="1" parent="1" source="3010zChGD8NFXPHqeN6b-53" target="3010zChGD8NFXPHqeN6b-51">
          <mxGeometry width="100" relative="1" as="geometry">
            <mxPoint x="827" y="206.32" as="sourcePoint" />
            <mxPoint x="708" y="280" as="targetPoint" />
            <Array as="points">
              <mxPoint x="765" y="361" />
              <mxPoint x="765" y="299" />
            </Array>
          </mxGeometry>
        </mxCell>
        <mxCell id="3010zChGD8NFXPHqeN6b-60" value="Pull&amp;nbsp;&lt;div&gt;Image&lt;/div&gt;" style="edgeLabel;html=1;align=left;verticalAlign=middle;resizable=0;points=[];labelBackgroundColor=none;fontColor=#FFFFFF;" vertex="1" connectable="0" parent="3010zChGD8NFXPHqeN6b-59">
          <mxGeometry x="-0.1266" y="4" relative="1" as="geometry">
            <mxPoint x="7" y="-15" as="offset" />
          </mxGeometry>
        </mxCell>
        <mxCell id="3010zChGD8NFXPHqeN6b-65" value="" style="edgeStyle=orthogonalEdgeStyle;fontSize=12;html=1;endArrow=none;endFill=0;rounded=0;strokeWidth=2;endSize=4;startSize=4;dashed=0;strokeColor=#4284F3;startArrow=blockThin;startFill=1;exitX=1.001;exitY=0.489;exitDx=0;exitDy=0;exitPerimeter=0;" edge="1" parent="1" source="3010zChGD8NFXPHqeN6b-51">
          <mxGeometry width="100" relative="1" as="geometry">
            <mxPoint x="714" y="288" as="sourcePoint" />
            <mxPoint x="708" y="208" as="targetPoint" />
            <Array as="points">
              <mxPoint x="765" y="288" />
              <mxPoint x="765" y="208" />
            </Array>
          </mxGeometry>
        </mxCell>
        <mxCell id="3010zChGD8NFXPHqeN6b-66" value="Push&amp;nbsp;&lt;div&gt;Image&lt;/div&gt;" style="edgeLabel;html=1;align=left;verticalAlign=middle;resizable=0;points=[];labelBackgroundColor=none;fontColor=#FFFFFF;" vertex="1" connectable="0" parent="3010zChGD8NFXPHqeN6b-65">
          <mxGeometry x="-0.1266" y="4" relative="1" as="geometry">
            <mxPoint x="5" y="-11" as="offset" />
          </mxGeometry>
        </mxCell>
        <mxCell id="3010zChGD8NFXPHqeN6b-70" value="" style="edgeStyle=orthogonalEdgeStyle;fontSize=12;html=1;endArrow=none;endFill=0;rounded=0;strokeWidth=2;endSize=4;startSize=4;dashed=0;strokeColor=#4284F3;startArrow=blockThin;startFill=1;entryX=0.527;entryY=0.941;entryDx=0;entryDy=0;entryPerimeter=0;" edge="1" parent="1" target="3010zChGD8NFXPHqeN6b-53">
          <mxGeometry width="100" relative="1" as="geometry">
            <mxPoint x="577" y="469" as="sourcePoint" />
            <mxPoint x="534" y="455" as="targetPoint" />
            <Array as="points">
              <mxPoint x="577" y="455" />
            </Array>
          </mxGeometry>
        </mxCell>
        <mxCell id="3010zChGD8NFXPHqeN6b-71" value="Deploy" style="edgeLabel;html=1;align=center;verticalAlign=middle;resizable=0;points=[];labelBackgroundColor=none;fontColor=#FFFFFF;" vertex="1" connectable="0" parent="3010zChGD8NFXPHqeN6b-70">
          <mxGeometry x="-0.1266" y="4" relative="1" as="geometry">
            <mxPoint x="28" y="-9" as="offset" />
          </mxGeometry>
        </mxCell>
        <mxCell id="3010zChGD8NFXPHqeN6b-72" value="" style="verticalLabelPosition=bottom;html=1;verticalAlign=top;align=center;strokeColor=none;fillColor=#AECBFA;shape=mxgraph.azure.website_generic;pointerEvents=1;" vertex="1" parent="1">
          <mxGeometry x="555" y="480" width="50" height="42.5" as="geometry" />
        </mxCell>
        <mxCell id="3010zChGD8NFXPHqeN6b-76" value="" style="endArrow=none;html=1;rounded=0;strokeColor=#000000;" edge="1" parent="1">
          <mxGeometry width="50" height="50" relative="1" as="geometry">
            <mxPoint x="158" y="445" as="sourcePoint" />
            <mxPoint x="156" y="11" as="targetPoint" />
          </mxGeometry>
        </mxCell>
        <mxCell id="3010zChGD8NFXPHqeN6b-77" value="" style="endArrow=none;html=1;rounded=0;strokeColor=#000000;" edge="1" parent="1">
          <mxGeometry width="50" height="50" relative="1" as="geometry">
            <mxPoint x="822" y="463" as="sourcePoint" />
            <mxPoint x="820" y="29" as="targetPoint" />
          </mxGeometry>
        </mxCell>
        <UserObject label="" link="https://creditcardfrauddetectionapp-bekxybq3fq-uc.a.run.app" id="3010zChGD8NFXPHqeN6b-78">
          <mxCell style="shape=image;verticalLabelPosition=bottom;labelBackgroundColor=default;verticalAlign=top;aspect=fixed;imageAspect=0;image=data:image/png,iVBORw0KGgoAAAANSUhEUgAAAUcAAAAhCAYAAABKk2mYAAAAAXNSR0IArs4c6QAAAARnQU1BAACxjwv8YQUAAAAJcEhZcwAADsMAAA7DAcdvqGQAABCFSURBVHhe7Z1xcBTXfce/wqSBKfWIJpnu1XbDYZT4VCvlVHuMLqYtR5RYp0LCKZBwGjPBB+nAyfzBHUzTE9SBE07FiUllyZ5xJUhM7kjM3NEhIymB6kgjqqPG1Tl1Rkcjh6M1GV1q2lNjZqTEwq/vvX0n7e2tpFuBbTl+H+a0u2/f/fb3fu+3v33v7e+GMkKBRCKRSApYJLYSiUQi0SCDo0QikRggg6NEIpEYcNtrjr++9Ra+n76IH468hFd/+XP851gWZfTfx8sVfEq5H4994hH85QOfxocWLRbfkEgkkoXPbQXH869dxt7edmRyo6LEmPt//x50bNiLtSv+RJRIJBLJwmbewfHvfhxB6MK3QOi/UlhUVoZvfG4Xdj/iFiUSiUSycJlXcPzGj7/DA+N8OOZ6El99+PPiSCKRSBYmpl/I/NPPX55XYHz045/i20BfB166nub7EgOuR9FAR9llh5OiAMieboSlzIKmvjFR8v4geZi2o6wB0euiIM9YCt2761FpYect2HEmK04sEAz6YGaSaGF1t0SxwFphiverj72TmAqO45O/hu9smzgqnW32x9D3lTY8td6Lt+lA9a/+sRW3yNvirGQulixbjqWwwvKxJaKEYuoGXkhk0O2pxo7nhmDZEES4NQB3lSLOfRB5d4Nr9lQDfSCVoeWSKBAY+tgHHFPB8bv/3o9f/OoNcVQaX6paj86Nfv4G+ze33uJlI//zOs6NvMT3JXNTXteBq2QQwYd+Cxz3ehK9fYDytQh6ng/Bv88P1ypxTvKe8VvlY3cIU8HxBz/TPW7m4AuVf4Z/2PTXPDD+/eCLOPKjF8QZ4Icj/yr2JB8ormcQpxtHVSXkbShZyJgKjj8ZHRF7Kp8W64hGbKr8c3z7i838LfXRgSiC558XZ1T+7Rf/IfYWEmNIPtOE+ioLn3qUVTiw43Ac6ZviNGNqOptA5kwA9RV039KClDgNTCB9pgU7albOLCPPjSTannBgJatXthL1uzuRNJhbFU6FxDTsvkYeZHDQoV5HN70eu9iJpo2VsAjZjidaEL8yIc5OM3GtF51T639lWFnTgMCpNLWEliyiW9j5FiSuxRFwsbZZ0PKyOM3afIraQtjNUtWIljNp5MRZFSGjppkfxT3Cxvnp5Bx2Natn0WLDpRb+vYZTOgOX2Aecm2lE90+vlVZ6mE0LW6ll4kocLRrZhX2Q19UBbhG+5keP9dNrqt90u+k1Nzah86LRuuAcvivab/Fwr0FzDZM3Pb2eabrN5Bb4s6VStdENcTrPlH0z1PfaCv3/mZSunxhjSJ0qlLv+iTYk9LYXcpsvUD0KfKye93+BRwsfajiZQfaCToejSQMdZsdUcPzf8V+JPaD1sd34wVfa0PDHfyFKpqn/pAPf+mIQd5Ut4iPGryeOizPTzJUb+e6TQXSbDY49MUzUeNEVj6FrkwWJgw2orKU3mz64xQNocEeQuc8JZ1W5KJxA8rATle5u5Nb6EYlH0KGRkdL25I1eNNU4EDiRhW0XW3vzwT4Zh3uDH4OiijE2uBP96H8xCCc73NmBfna82cbPMjKnGmFb24TYTQe8x2OIHXfDMtCMBpuTOv+0EhPU8ZzWeoSuWOA91oP+3gh8VWOIeCrhejpV6HicGAKbGhB53QpnbSXyrU49Uw+npw1DVCN/axiBbRYM7XfC+6yowCmHcz/V81kvP3IeiKl603p5ORwDu5rXs0RM9UEKnRudaDw6BKzz87VS771DCKzzokPU0MJ1tjWgm/aBPxpDpF3TBy8zjYU9Eh3gFqkNIqa3x7UoGqscvN3uI6wfvXDcjKFprQ2Np7VRpATfXeXm9o4d4F5D+4Zdux/uWZc0sujd46L+3IFBq1uVu9OBiTNNdOTfiOg1UU1Dpp363vYEltT6qI2C8N6XQfeeajSeyIgaDFXfag+7T9R2x464UD4QwHo7fejrX+BRuj02OI+MwrYtQOX64ZjoRZvHiXoaePXE9ztg/6pOB1pWvafXXIBkqTyl8gdHNpDffWo9/9ApMi+bfPsW+fJ3D06Vbzl1gLx1a5Kf++a/fG+qXP9hshYSo1E3ARTiiV4VJSrjA0Fip2ZyHRflr0eImx5D8ZBIRi3KM37OTxTYSTCREyUqRTLIOOn/mkKvR+sOjIsylatRD5VB5R8aFCV53UBCSVHAyOuhqccR5crjEVLQkjcHSXA1rV/XJcpzpGefkzhrQ6T/TV4gGCc9T7LkVR/pmWrGKIlsZmXUPi8U2oeMdBEX02Nz8fVCa9h33CTyuihjJEO8Le7oqCgQzGjX+egZIjqrGFzXXB9cPe5Sv69r/ziVW8Pq0vZPtejNfuJXQOwH+qn2Gor6gEHtpP8+5yrpqmPltO5boohzVW2jEiT9Qu2SfZdi6EsUo/LcWR+3g+vYELWWhkyEeGj7Ctoh7Is11PbaRgtboFZTN9VBXLVO4tX7UrqD0NBN7PR6Uwi53J+1dpjyLy+JvSHK8j6k14HZ7HG1r8MpUVQCpkaOlt/7iNgDWn70bT4qZKPDk5sP4nMVj6B21cOIbPlbLF50Fz+nn0pruefuj4q9hUAWiTN0urE6gMBWqyhTWfJoI3ybnZhI66ZwO5vgWSH2OWNURhuy9GnlXVcwFqIy6tFAt72X8zJSSNLRCljdRwtX3qxr6+EQ+/MhOxCj0207Ans9KGjJsho07nbDOZlGmk+JyuFqpaOHc3QEuozXECxBdQ11MYxirGgpwIumxwvtk73ci1669e90F13PSaOmaYrsOh89S8FMH2SR7OOtpL6g8481dPQi9vOMXYijLeuEb5tuVExtUs9U7kshPdcQ5pU4OvuYXRthLfjlLR21b6JCsr1IXWHH8/DdkqCjxpOdyCpB+HfZC9eHV3iof9Gw29eJ+CuiTODe7UGNttHLKlG9lm7PZ6lEwWofes71o0vnS3igms+GUjeL5wKOOmehHagtffvZmLsbiaSudS5noQ7UZp69AXpXpBC5UDzSnAlTwXG1pULsqbDg1zoQ4cHwO1sO4ntfPsz3WdlsgZHx0D0PiL2FQAaZ03RTYyu8wTk2eF+kN2crHfaLEs6HxHaKNFLP0c35HWKNSfsR60o3xtQp4PUMhpinrK00uN7tkXmNv+6ArSDAqNh20qnsuTBcmufS2GtsLa8BDrbGJ/TNr0sVs1Rsp1Gv50a17Q69Ximyq4o5PUvAVB8I/9hcjcoSmpl+pZP+TWCHRtf8x3GQ1Zg7oGfTg3y9te2zS4tkqO1OYYI70zx8tySE3FrjNtvXssd9CkMjUyFPZXGxjxgySR84bM3RmV8XZx9xn5RIud1JPQ+I/VQ7ZZ+B1Q6wZ3UqlZkO0nNgKjh+tuJhsTfNocQJPkpcuvjD+J27FvN9VjYXbKS54LAsn4cT6dgu1gCNPvr1tXcMC5aXcCG2LuaqqEfbjWo0tfdjKJNDLpfD8PPM5RYO7xc9C/Giw8gH+KcZzpImTjUIRo2+r34K1gvvhO9qYQ8Ptq2wYLYs1IlJsWOKDKJP2OHYmwA2hRBJDmOU9mcu14OgqFESYiSZnSxt1ZmHbfWJUhKmgiNLzbn37o+Jo2nYKJEFxbmm0nkqPnIf6h+4ncnjO8Robh7TDx03l6NynRNOo89DyruUvjKK3JwNSaFzVzOSdV385Y6HTlvsK8pRXl6O5QXT1/ea94ueenJYXmHgA/xjh1KSIySx1Gr0ffVj0wbYO+G7Wu61opptR0aNR1qT42LHPGPfb0PjScD/Qg+6nnTDucYGhfZneTlLRDfBxDhvs7K4BGPSujyvYEnpd6Cp4MhGh89+PiCOCmFBsZTAyFJ7OjfuxYfvmmH+9J5ghXUz3STT9JmmJ4vEM21oOzFXKoACpZZuTicwqE9z0MMcjz2O6ROzhAmBKayr2GhqEGmDN4nZC51oO9oNvkSTpSMDtl5UUzytHL9Z+m2Wv97wSOlPZFPcIT2LMNUHwj8GhjFcQjMVha2cxZG4PH/9yj+qtjY2MNca2Z3wXSOE3PNDhm1OJdkaLB392WYbVxqT+WmM/nUUL8XkA1iJjL2aBB17ouHBuRdGcCXF69rt1llHwlpMBUeGc+Wf4sC67eLIPK2P+eD4oypxtFBQ1EXuV8IInyp0sYlL3WjeE6CGVeaYtlhRv50Fim6E2hM6ZxxD4ukAuqdy3GrgEgva3RcLPS8z0DNHKo8O9UdHUyhrG+Cmo63wsWjhzXIzie6/aULgAq3DGqJYUMm8JJ5ASjs1uhZF80HmRqWh1DbSCWQWLc/Fi66XYPfP7WJKTwU2O6scw2DBi4IJJM/3iP08ZvpAgWurl8aaFnSe1vtHAnrJ1jovXwvrPhRGQheVxi60IHBCl5/HoG3TjsWW0H4MraZBaH8I3foHHW17gLZdFT0/3x2fczpM2/y4DwptcxvVtwB6/fAxGrTrfHBTHc1iWcFmjfThUZBQOobk0WbM9OPkwb5EkX91tnbTHS+chW9fgN6ELvWOTuOPheldYUcjHbWXjHhrbZqn//kkWfbUZwzTdIw+d3+9lnReiolvL0Tyr/utxLUrTCK9MdK1z0Pog5Eo60JkMJ9GMlMKDecqiW238tQD62Y/6Yj2kNjxIPGuY3JrSGhAk18wlYpgJe59YRJuDRP/VhtRVlkJfQ7OncpDhkiYpYUoTuI9QL9/djotIp+KYq3zkTDXwU88D1IdaN1QcjopY+hYDZerPOghfnr94C4XvbZCrKuYvtrrzZIiQ8lfT1nnJUEqJ3zAR1xUhirHZCqPgV1L15OSCqupNavcvG64NUh8dWqfFF3XRB9M+4dCnDuDvC7XQ6F1WaqKLhXn6oteVQbToz1CeuJdJLjTye1UQ+VOe0KO9OzS6HB8+hxLE3Iy2byPu0isN0I69rm53MLUlhJ9l0Htw9J78n3VM6IWG/vYKOl5ktlebXNXvIdEWr1CJ13K1Uz9auQ7b/QQH5PB9WW2FP6Zt7vWlvlUHkXhOjN/7omGxT2lS1+aSgejdZndj8dIP7W7f7Pa/8zuhUlbszPv4Mjo+9klUtH2JcNgqP1UtW8jA9d+Ir61kMmRwXZ6Y7OOYh3yoIv42vvJqDa/atbgyMiR4XiIeNeIG1KxEef2MOnX+wzjjUHSwW/0vKN0kEFaxvPeNPJnyk0bT3WoTkXPWVs1uWGU3EAH8W2gN7rQgcku1mGcDEf9U+21rvGSUO9VMnrWx4+nHX324Mjl0DbndWFBLBQfprKZ3rcfHEvXUyU3QG+evP1X1RDvoRgZTqvyi65bYh9w3hwmsUNq0GE3pm1riMTSw6ptivIUqR6vxkhoe42QTeuzmzuhr0XJ9BC/CODK9lihnNF+rp96TdZ2etNHhzXBNU8JvssZJ0Pt+TZYSfiyWjqTjxn5s2tfFxnK5xbmMRMcGdTG4bxtuH9Smbn8A19TNy/3BeZP0z7A2sfsUBDspnyItjuh84FW7QOpNMrYHypg3kxM/gZn0xdBAyWG/zuD//q/X/LfUluXW2D/w0/gM/c/xP+bBJbiI5FIJKa41MJ/ckqDLmJb2ZLJLLCfD7Kf1R4aBDlA5w+3yW0HR4lEInnHeA+Do+kXMhKJRPJBQAZHiUQiMUBOqyUSicQAOXKUSCQSA2RwlEgkEgNkcJRIJBIDZHCUSCQSA2RwlEgkkiKA/wem+cX2CmG7qwAAAABJRU5ErkJggg==;" vertex="1" parent="1">
            <mxGeometry x="508" y="527" width="152.14" height="15.35" as="geometry" />
          </mxCell>
        </UserObject>
      </root>
    </mxGraphModel>
  </diagram>
  <diagram id="wfFDPG-f6vJkce0duZQA" name="Page-2">
    <mxGraphModel grid="0" page="1" gridSize="10" guides="1" tooltips="1" connect="1" arrows="1" fold="1" pageScale="1" pageWidth="850" pageHeight="1100" math="0" shadow="0">
      <root>
        <mxCell id="0" />
        <mxCell id="1" parent="0" />
      </root>
    </mxGraphModel>
  </diagram>
</mxfile>
